<?xml version="1.0" encoding="utf-8"?>
<!-- Uploaded to: SVG Repo, www.svgrepo.com, Generator: SVG Repo Mixer Tools -->
<svg fill="#000000" width="800px" height="800px" viewBox="0 0 32 32" version="1.1" xmlns="http://www.w3.org/2000/svg">
<title>calculator</title>
<path d="M30 14.75h-12.75v-12.75c0-0.69-0.56-1.25-1.25-1.25s-1.25 0.56-1.25 1.25v0 12.75h-12.75c-0.69 0-1.25 0.56-1.25 1.25s0.56 1.25 1.25 1.25v0h12.75v12.75c0 0.69 0.56 1.25 1.25 1.25s1.25-0.56 1.25-1.25v0-12.75h12.75c0.69 0 1.25-0.56 1.25-1.25s-0.56-1.25-1.25-1.25v0zM20 8.25h3.75v3.75c0 0.69 0.56 1.25 1.25 1.25s1.25-0.56 1.25-1.25v0-3.75h3.75c0.69 0 1.25-0.56 1.25-1.25s-0.56-1.25-1.25-1.25v0h-3.75v-3.75c0-0.69-0.56-1.25-1.25-1.25s-1.25 0.56-1.25 1.25v0 3.75h-3.75c-0.69 0-1.25 0.56-1.25 1.25s0.56 1.25 1.25 1.25v0zM2 8.25h10c0.69 0 1.25-0.56 1.25-1.25s-0.56-1.25-1.25-1.25v0h-10c-0.69 0-1.25 0.56-1.25 1.25s0.56 1.25 1.25 1.25v0zM11.419 20.58c-0.226-0.226-0.539-0.366-0.884-0.366s-0.658 0.14-0.884 0.366l-2.651 2.651-2.651-2.651c-0.226-0.224-0.537-0.363-0.881-0.363-0.691 0-1.251 0.56-1.251 1.251 0 0.344 0.139 0.656 0.364 0.882l2.65 2.65-2.65 2.65c-0.225 0.226-0.364 0.538-0.364 0.882 0 0.691 0.56 1.251 1.251 1.251 0.344 0 0.655-0.139 0.881-0.363l2.651-2.651 2.651 2.651c0.227 0.228 0.54 0.369 0.887 0.369 0.691 0 1.251-0.56 1.251-1.251 0-0.347-0.141-0.661-0.369-0.887l-2.65-2.651 2.65-2.65c0.226-0.227 0.366-0.539 0.366-0.885s-0.14-0.658-0.366-0.885v0zM30 23.75h-10c-0.69 0-1.25 0.56-1.25 1.25s0.56 1.25 1.25 1.25v0h10c0.69 0 1.25-0.56 1.25-1.25s-0.56-1.25-1.25-1.25v0zM26.25 21c0 0.69-0.56 1.25-1.25 1.25s-1.25-0.56-1.25-1.25c0-0.69 0.56-1.25 1.25-1.25s1.25 0.56 1.25 1.25zM26.25 29c0 0.69-0.56 1.25-1.25 1.25s-1.25-0.56-1.25-1.25c0-0.69 0.56-1.25 1.25-1.25s1.25 0.56 1.25 1.25z"></path>
</svg>